<svg width="21" height="21" viewBox="0 0 21 21" fill="none" xmlns="http://www.w3.org/2000/svg">
<path d="M9.70897 3.42708C10.009 2.50608 11.312 2.50608 11.611 3.42708L12.681 6.71908C12.7463 6.91957 12.8734 7.09426 13.044 7.21818C13.2147 7.34211 13.4201 7.40892 13.631 7.40908H17.093C18.062 7.40908 18.464 8.64908 17.681 9.21908L14.881 11.2531C14.71 11.3771 14.5827 11.5521 14.5173 11.7529C14.4519 11.9538 14.4518 12.1702 14.517 12.3711L15.587 15.6631C15.887 16.5841 14.832 17.3511 14.047 16.7811L11.247 14.7471C11.0762 14.6231 10.8705 14.5563 10.6595 14.5563C10.4484 14.5563 10.2428 14.6231 10.072 14.7471L7.27197 16.7811C6.48797 17.3511 5.43397 16.5841 5.73297 15.6631L6.80297 12.3711C6.86815 12.1702 6.86803 11.9538 6.80264 11.7529C6.73725 11.5521 6.60994 11.3771 6.43897 11.2531L3.63997 9.22008C2.85697 8.65008 3.25997 7.41008 4.22797 7.41008H7.68897C7.90002 7.41013 8.10568 7.34342 8.2765 7.21948C8.44732 7.09554 8.57455 6.92073 8.63997 6.72008L9.70997 3.42808L9.70897 3.42708Z" fill="#FFA13C"/>
</svg>
