<svg width="24" height="25" viewBox="0 0 24 25" fill="none" xmlns="http://www.w3.org/2000/svg">
<path d="M9 5.5H7C6.46957 5.5 5.96086 5.71071 5.58579 6.08579C5.21071 6.46086 5 6.96957 5 7.5V19.5C5 20.0304 5.21071 20.5391 5.58579 20.9142C5.96086 21.2893 6.46957 21.5 7 21.5H17C17.5304 21.5 18.0391 21.2893 18.4142 20.9142C18.7893 20.5391 19 20.0304 19 19.5V7.5C19 6.96957 18.7893 6.46086 18.4142 6.08579C18.0391 5.71071 17.5304 5.5 17 5.5H15M9 5.5C9 6.03043 9.21071 6.53914 9.58579 6.91421C9.96086 7.28929 10.4696 7.5 11 7.5H13C13.5304 7.5 14.0391 7.28929 14.4142 6.91421C14.7893 6.53914 15 6.03043 15 5.5M9 5.5C9 4.96957 9.21071 4.46086 9.58579 4.08579C9.96086 3.71071 10.4696 3.5 11 3.5H13C13.5304 3.5 14.0391 3.71071 14.4142 4.08579C14.7893 4.46086 15 4.96957 15 5.5" stroke="#32936F" stroke-width="2" stroke-linecap="round" stroke-linejoin="round"/>
</svg>
