<svg width="24" height="25" viewBox="0 0 24 25" fill="none" xmlns="http://www.w3.org/2000/svg">
<path d="M3.055 11.5H5C5.53043 11.5 6.03914 11.7107 6.41421 12.0858C6.78929 12.4609 7 12.9696 7 13.5V14.5C7 15.0304 7.21071 15.5391 7.58579 15.9142C7.96086 16.2893 8.46957 16.5 9 16.5C9.53043 16.5 10.0391 16.7107 10.4142 17.0858C10.7893 17.4609 11 17.9696 11 18.5V21.445M8 4.435V6C8 6.66304 8.26339 7.29893 8.73223 7.76777C9.20107 8.23661 9.83696 8.5 10.5 8.5H11C11.5304 8.5 12.0391 8.71071 12.4142 9.08579C12.7893 9.46086 13 9.96957 13 10.5C13 11.0304 13.2107 11.5391 13.5858 11.9142C13.9609 12.2893 14.4696 12.5 15 12.5C15.5304 12.5 16.0391 12.2893 16.4142 11.9142C16.7893 11.5391 17 11.0304 17 10.5C17 9.96957 17.2107 9.46086 17.5858 9.08579C17.9609 8.71071 18.4696 8.5 19 8.5H20.064M15 20.988V18.5C15 17.9696 15.2107 17.4609 15.5858 17.0858C15.9609 16.7107 16.4696 16.5 17 16.5H20.064M21 12.5C21 13.6819 20.7672 14.8522 20.3149 15.9442C19.8626 17.0361 19.1997 18.0282 18.364 18.864C17.5282 19.6997 16.5361 20.3626 15.4442 20.8149C14.3522 21.2672 13.1819 21.5 12 21.5C10.8181 21.5 9.64778 21.2672 8.55585 20.8149C7.46392 20.3626 6.47177 19.6997 5.63604 18.864C4.80031 18.0282 4.13738 17.0361 3.68508 15.9442C3.23279 14.8522 3 13.6819 3 12.5C3 10.1131 3.94821 7.82387 5.63604 6.13604C7.32387 4.44821 9.61305 3.5 12 3.5C14.3869 3.5 16.6761 4.44821 18.364 6.13604C20.0518 7.82387 21 10.1131 21 12.5Z" stroke="#32936F" stroke-width="2" stroke-linecap="round" stroke-linejoin="round"/>
</svg>
